<svg xmlns="http://www.w3.org/2000/svg" viewBox="0 0 800 500" width="800" height="500" role="img">
<defs>
<linearGradient id="bg6" x1="0" y1="0" x2="1" y2="1"><stop offset="0" stop-color="#0b1117"/><stop offset="1" stop-color="#0e1724"/></linearGradient>
<linearGradient id="ac6" x1="0" y1="0" x2="1" y2="0"><stop offset="0" stop-color="#2dd4bf"/><stop offset="1" stop-color="#818cf8"/></linearGradient>
<radialGradient id="g16"><stop offset="0" stop-color="#2dd4bf" stop-opacity=".22"/><stop offset="1" stop-color="#2dd4bf" stop-opacity="0"/></radialGradient>
<radialGradient id="g26"><stop offset="0" stop-color="#818cf8" stop-opacity=".22"/><stop offset="1" stop-color="#818cf8" stop-opacity="0"/></radialGradient>
<pattern id="gr6" width="40" height="40" patternUnits="userSpaceOnUse"><path d="M40 0H0V40" fill="none" stroke="#ffffff" stroke-opacity=".05"/></pattern>
<marker id="ar6" viewBox="0 0 10 10" refX="8" refY="5" markerWidth="7" markerHeight="7" orient="auto"><path d="M1 1L9 5L1 9" fill="none" stroke="#2dd4bf" stroke-width="1.6" stroke-linecap="round"/></marker>
</defs>
<rect width="800" height="500" fill="url(#bg6)"/>
<rect width="800" height="500" fill="url(#gr6)"/>
<circle cx="140" cy="60" r="260" fill="url(#g16)"/>
<circle cx="700" cy="460" r="280" fill="url(#g26)"/>
<text x="40" y="44" font-family="ui-monospace,SFMono-Regular,Menlo,monospace" font-size="13" fill="#2dd4bf" letter-spacing="2">// image classification</text>
<text x="60" y="118" font-family="ui-monospace,SFMono-Regular,Menlo,monospace" font-size="11" fill="#8b97a8" text-anchor="start" font-weight="500">input image</text><rect x="60" y="140" width="18" height="18" rx="3" fill="#2dd4bf" opacity="0.12"/><rect x="82" y="140" width="18" height="18" rx="3" fill="#2dd4bf" opacity="0.12"/><rect x="104" y="140" width="18" height="18" rx="3" fill="#2dd4bf" opacity="0.85"/><rect x="126" y="140" width="18" height="18" rx="3" fill="#2dd4bf" opacity="0.85"/><rect x="148" y="140" width="18" height="18" rx="3" fill="#2dd4bf" opacity="0.12"/><rect x="170" y="140" width="18" height="18" rx="3" fill="#2dd4bf" opacity="0.12"/><rect x="60" y="162" width="18" height="18" rx="3" fill="#2dd4bf" opacity="0.12"/><rect x="82" y="162" width="18" height="18" rx="3" fill="#2dd4bf" opacity="0.12"/><rect x="104" y="162" width="18" height="18" rx="3" fill="#2dd4bf" opacity="0.85"/><rect x="126" y="162" width="18" height="18" rx="3" fill="#2dd4bf" opacity="0.85"/><rect x="148" y="162" width="18" height="18" rx="3" fill="#2dd4bf" opacity="0.12"/><rect x="170" y="162" width="18" height="18" rx="3" fill="#2dd4bf" opacity="0.12"/><rect x="60" y="184" width="18" height="18" rx="3" fill="#2dd4bf" opacity="0.12"/><rect x="82" y="184" width="18" height="18" rx="3" fill="#2dd4bf" opacity="0.85"/><rect x="104" y="184" width="18" height="18" rx="3" fill="#2dd4bf" opacity="0.85"/><rect x="126" y="184" width="18" height="18" rx="3" fill="#2dd4bf" opacity="0.85"/><rect x="148" y="184" width="18" height="18" rx="3" fill="#2dd4bf" opacity="0.85"/><rect x="170" y="184" width="18" height="18" rx="3" fill="#2dd4bf" opacity="0.12"/><rect x="60" y="206" width="18" height="18" rx="3" fill="#2dd4bf" opacity="0.12"/><rect x="82" y="206" width="18" height="18" rx="3" fill="#2dd4bf" opacity="0.85"/><rect x="104" y="206" width="18" height="18" rx="3" fill="#2dd4bf" opacity="0.85"/><rect x="126" y="206" width="18" height="18" rx="3" fill="#2dd4bf" opacity="0.85"/><rect x="148" y="206" width="18" height="18" rx="3" fill="#2dd4bf" opacity="0.85"/><rect x="170" y="206" width="18" height="18" rx="3" fill="#2dd4bf" opacity="0.12"/><rect x="60" y="228" width="18" height="18" rx="3" fill="#2dd4bf" opacity="0.12"/><rect x="82" y="228" width="18" height="18" rx="3" fill="#2dd4bf" opacity="0.12"/><rect x="104" y="228" width="18" height="18" rx="3" fill="#2dd4bf" opacity="0.85"/><rect x="126" y="228" width="18" height="18" rx="3" fill="#2dd4bf" opacity="0.85"/><rect x="148" y="228" width="18" height="18" rx="3" fill="#2dd4bf" opacity="0.12"/><rect x="170" y="228" width="18" height="18" rx="3" fill="#2dd4bf" opacity="0.12"/><rect x="60" y="250" width="18" height="18" rx="3" fill="#2dd4bf" opacity="0.12"/><rect x="82" y="250" width="18" height="18" rx="3" fill="#2dd4bf" opacity="0.12"/><rect x="104" y="250" width="18" height="18" rx="3" fill="#2dd4bf" opacity="0.12"/><rect x="126" y="250" width="18" height="18" rx="3" fill="#2dd4bf" opacity="0.12"/><rect x="148" y="250" width="18" height="18" rx="3" fill="#2dd4bf" opacity="0.12"/><rect x="170" y="250" width="18" height="18" rx="3" fill="#2dd4bf" opacity="0.12"/><path d="M200 235L250 235" stroke="#2dd4bf" stroke-width="1.6" stroke-linecap="round" fill="none" marker-end="url(#ar6)" stroke-dasharray="4 5"/><text x="322.0" y="118" font-family="ui-monospace,SFMono-Regular,Menlo,monospace" font-size="11" fill="#8b97a8" text-anchor="middle" font-weight="500">conv</text><rect x="262" y="187.0" width="96" height="96" rx="8" fill="#121a24" stroke="#2dd4bf" stroke-opacity="0.8"/><rect x="272" y="177.0" width="96" height="96" rx="8" fill="#121a24" stroke="#2dd4bf" stroke-opacity="0.6000000000000001"/><rect x="282" y="167.0" width="96" height="96" rx="8" fill="#121a24" stroke="#2dd4bf" stroke-opacity="0.4"/><text x="428.0" y="118" font-family="ui-monospace,SFMono-Regular,Menlo,monospace" font-size="11" fill="#8b97a8" text-anchor="middle" font-weight="500">conv</text><rect x="380" y="199.0" width="72" height="72" rx="8" fill="#121a24" stroke="#818cf8" stroke-opacity="0.8"/><rect x="390" y="189.0" width="72" height="72" rx="8" fill="#121a24" stroke="#818cf8" stroke-opacity="0.6000000000000001"/><rect x="400" y="179.0" width="72" height="72" rx="8" fill="#121a24" stroke="#818cf8" stroke-opacity="0.4"/><text x="518.0" y="118" font-family="ui-monospace,SFMono-Regular,Menlo,monospace" font-size="11" fill="#8b97a8" text-anchor="middle" font-weight="500">pool</text><rect x="480" y="209.0" width="52" height="52" rx="8" fill="#121a24" stroke="#2dd4bf" stroke-opacity="0.8"/><rect x="490" y="199.0" width="52" height="52" rx="8" fill="#121a24" stroke="#2dd4bf" stroke-opacity="0.6000000000000001"/><rect x="500" y="189.0" width="52" height="52" rx="8" fill="#121a24" stroke="#2dd4bf" stroke-opacity="0.4"/><path d="M560 235L604 235" stroke="#2dd4bf" stroke-width="1.6" stroke-linecap="round" fill="none" marker-end="url(#ar6)" stroke-dasharray="4 5"/><text x="676" y="118" font-family="ui-monospace,SFMono-Regular,Menlo,monospace" font-size="11" fill="#8b97a8" text-anchor="middle" font-weight="500">classes</text><circle cx="640" cy="160" r="18" fill="#2dd4bf" stroke="#2dd4bf" stroke-opacity="1" fill-opacity=".9"/><text x="668" y="165" font-family="ui-monospace,SFMono-Regular,Menlo,monospace" font-size="13" fill="#e8edf5" text-anchor="start" font-weight="500">rock</text><circle cx="640" cy="228" r="18" fill="#121a24" stroke="#2dd4bf" stroke-opacity="0.4" /><text x="668" y="233" font-family="ui-monospace,SFMono-Regular,Menlo,monospace" font-size="13" fill="#8b97a8" text-anchor="start" font-weight="500">paper</text><circle cx="640" cy="296" r="18" fill="#121a24" stroke="#2dd4bf" stroke-opacity="0.4" /><text x="668" y="301" font-family="ui-monospace,SFMono-Regular,Menlo,monospace" font-size="13" fill="#8b97a8" text-anchor="start" font-weight="500">scissors</text><text x="400" y="450" font-family="ui-monospace,SFMono-Regular,Menlo,monospace" font-size="13" fill="#8b97a8" text-anchor="middle" font-weight="500">TensorFlow  ·  CNN  ·  Google Colab</text>
</svg>